<?xml version="1.0" encoding="UTF-8"?>
<!DOCTYPE svg PUBLIC "-//W3C//DTD SVG 1.1//EN" "http://www.w3.org/Graphics/SVG/1.1/DTD/svg11.dtd">
<svg version="1.1" xmlns="http://www.w3.org/2000/svg" xmlns:xlink="http://www.w3.org/1999/xlink" x="0" y="0" width="467.384" height="103.054" viewBox="0, 0, 467.384, 103.054">
  <g id="Layer1">
    <path d="M340.001,0.915 C339.755,1.457 339.656,2.293 339.853,2.786 C340.148,3.573 340.099,3.573 339.361,3.032 C338.131,1.998 337.393,2.835 337.688,4.951 C337.835,5.984 337.737,6.87 337.442,6.968 C337.146,7.067 337.196,7.657 337.491,8.494 C337.934,9.577 337.934,11.742 337.54,15.679 C337.54,15.777 337.097,15.482 336.556,14.99 C335.572,14.104 335.572,14.153 335.572,15.384 C335.572,16.319 335.326,16.712 334.735,16.712 C333.997,16.712 333.948,16.811 334.587,17.204 C334.981,17.45 335.965,17.696 336.753,17.696 C337.737,17.696 338.081,17.893 337.885,18.385 C337.737,18.779 337.934,19.37 338.328,19.665 C338.721,20.009 339.016,20.698 339.016,21.19 C339.016,21.683 339.705,22.864 340.493,23.749 C341.329,24.684 341.969,25.718 341.969,26.013 C341.969,26.358 342.215,26.456 342.51,26.308 C342.806,26.112 343.544,26.456 344.233,27.096 C345.512,28.277 345.512,28.277 346.25,26.85 C346.693,26.112 347.481,25.865 350.138,25.669 C352.008,25.57 353.681,25.226 353.878,24.93 C354.075,24.586 354.616,24.34 355.108,24.34 C355.65,24.34 355.945,23.995 355.847,23.454 C355.65,22.421 355.945,22.421 357.421,23.356 C358.701,24.192 359.291,23.799 359.882,21.732 C360.128,21.092 360.62,20.649 361.26,20.649 C361.949,20.649 362.146,20.403 361.998,19.911 C361.801,19.517 361.9,19.074 362.146,18.927 C362.785,18.533 362.785,13.415 362.146,13.021 C361.9,12.874 361.654,12.332 361.654,11.84 C361.654,10.659 359.636,8.838 358.307,8.838 C357.766,8.838 357.126,8.592 356.978,8.346 C356.831,8.051 356.24,7.854 355.699,7.854 C355.207,7.854 354.764,7.608 354.764,7.313 C354.764,6.968 354.272,5.738 353.681,4.557 C352.894,2.933 352.205,2.293 351.221,2.097 C350.483,1.949 349.843,1.555 349.843,1.162 C349.843,0.079 348.809,-0.167 348.17,0.719 C347.628,1.457 347.284,1.506 345.808,1.014 C344.873,0.719 343.741,0.571 343.347,0.719 C342.904,0.915 342.412,0.817 342.215,0.522 C341.723,-0.315 340.591,-0.118 340.001,0.915 z" fill="#D61616"/>
    <path d="M292.168,19.074 C291.38,19.173 290.79,19.419 290.79,19.665 C290.79,19.862 290.248,20.206 289.559,20.354 C288.92,20.501 286.951,21.535 285.18,22.667 C283.457,23.749 281.243,24.832 280.308,25.127 C279.373,25.373 278.093,26.112 277.454,26.751 C276.223,27.982 273.32,29.458 269.678,30.737 C267.759,31.377 267.365,31.377 266.037,30.737 C264.413,29.901 263.379,30.196 264.265,31.279 C264.708,31.82 264.56,31.968 263.478,31.968 C262.739,31.968 261.854,31.623 261.558,31.229 C261.066,30.541 260.771,30.541 258.753,31.229 C255.85,32.214 254.374,33.592 254.374,35.314 C254.374,36.101 253.98,36.889 253.389,37.282 C252.405,37.873 252.011,39.349 252.799,39.349 C253.045,39.349 253.685,39.792 254.275,40.333 C255.505,41.465 255.702,43.286 254.669,43.286 C253.537,43.286 253.143,44.369 254.029,45.009 C254.521,45.353 254.866,45.845 254.866,46.14 C254.866,46.436 255.309,46.928 255.801,47.223 C256.44,47.518 256.637,48.06 256.49,48.699 C256.293,49.339 256.49,49.684 256.933,49.684 C257.326,49.684 258.31,50.274 259.098,51.012 C260.623,52.39 263.281,52.685 265.298,51.603 C266.086,51.16 266.627,51.308 268.005,52.292 C270.121,53.817 271.007,53.571 270.908,51.554 C270.81,49.487 272.139,48.65 273.566,49.93 C274.648,50.914 274.747,50.914 276.026,48.699 C276.223,48.256 278.389,47.174 280.8,46.288 C283.162,45.402 286.262,44.221 287.591,43.68 C288.969,43.139 290.888,42.45 291.922,42.154 C292.906,41.859 293.742,41.416 293.742,41.219 C293.742,41.022 293.939,40.826 294.185,40.826 C294.727,40.826 294.628,44.024 294.087,44.566 C293.89,44.762 293.742,45.255 293.742,45.648 C293.742,46.239 293.939,46.239 294.973,45.55 C295.612,45.107 296.498,44.762 296.843,44.762 C297.236,44.762 297.925,44.32 298.417,43.778 C299.697,42.351 299.943,42.991 298.713,44.566 C298.171,45.304 297.679,46.239 297.679,46.731 C297.679,47.223 297.236,48.158 296.695,48.847 C296.154,49.536 295.711,50.569 295.711,51.16 C295.711,52.341 295.514,52.341 300.829,51.209 C302.65,50.815 303.978,49.979 306.636,47.666 C308.506,45.993 310.376,43.975 310.769,43.188 C311.163,42.45 312.344,41.269 313.378,40.58 C315.248,39.3 315.494,38.906 317.118,35.019 C317.61,33.887 318.2,32.952 318.446,32.952 C318.988,32.952 318.938,31.131 318.348,29.999 C318.102,29.507 316.872,28.72 315.641,28.277 C314.116,27.686 313.427,27.145 313.427,26.505 C313.427,25.964 313.23,25.57 312.935,25.57 C312.689,25.57 312.197,24.684 311.901,23.602 C311.311,21.683 311.311,21.683 309.933,22.371 C308.014,23.405 307.571,23.306 307.226,21.879 C306.882,20.551 306.734,20.501 304.175,20.649 C303.289,20.698 301.616,20.255 300.386,19.665 C298.467,18.73 298.024,18.681 296.498,19.222 C295.366,19.616 294.579,19.665 294.136,19.37 C293.792,19.124 292.906,18.976 292.168,19.074 z" fill="#D61616"/>
    <path d="M371.004,20.649 C371.004,20.895 371.742,22.618 372.677,24.438 C373.612,26.308 374.498,28.523 374.694,29.409 C374.99,30.885 374.153,35.905 373.612,35.905 C373.464,35.905 372.726,35.462 371.889,34.871 C370.315,33.739 369.429,33.936 370.708,35.166 C371.791,36.298 371.742,38.857 370.659,38.857 C369.281,38.857 368.592,39.546 368.248,41.121 C368.002,42.351 368.149,42.696 369.134,43.139 C370.019,43.532 370.315,44.123 370.413,45.648 C370.512,47.125 370.954,48.06 372.037,49.191 C372.874,50.028 373.464,50.963 373.317,51.308 C373.07,51.997 374.104,53.719 374.793,53.67 C374.99,53.67 375.187,54.162 375.187,54.802 C375.187,55.441 375.334,56.13 375.482,56.278 C375.777,56.573 384.487,57.114 387.735,57.065 C388.67,57.016 389.655,56.868 389.95,56.622 C390.196,56.426 391.426,55.933 392.656,55.589 C393.887,55.244 395.757,54.555 396.839,54.113 C397.922,53.62 400.727,52.439 403.089,51.455 C405.451,50.471 407.518,49.684 407.666,49.684 C407.813,49.684 408.896,49.29 410.028,48.798 C413.227,47.371 418,45.501 423.413,43.532 C426.12,42.548 428.777,41.465 429.319,41.17 C430.106,40.678 436.651,39.891 440.637,39.792 C442.704,39.743 445.854,40.727 447.428,41.957 C449.889,43.827 450.922,46.288 450.578,49.634 C450.086,54.752 446.985,59.427 441.572,63.167 L438.374,65.431 L432.862,65.185 L427.35,64.89 L429.516,65.776 C430.697,66.268 431.779,66.957 431.927,67.252 C432.222,68.236 426.957,68.039 422.675,66.907 C416.77,65.382 414.801,65.726 417.41,67.941 L418.492,68.827 L417.41,68.876 C416.77,68.876 416.278,69.073 416.278,69.368 C416.278,69.614 415.933,69.86 415.54,69.86 C415.146,69.86 414.801,70.205 414.801,70.647 C414.801,71.238 414.555,71.336 413.965,71.09 C412.292,70.401 410.865,70.254 410.865,70.746 C410.865,71.041 411.258,71.386 411.75,71.533 C412.242,71.73 413.374,72.468 414.26,73.256 C415.146,74.043 416.425,74.781 417.213,74.929 C419.132,75.323 420.805,76.848 420.904,78.275 C420.953,79.309 421.199,79.456 422.872,79.555 C424.152,79.604 425.087,79.948 425.579,80.588 C426.022,81.129 427.203,81.671 428.384,81.818 C429.565,81.966 430.943,82.557 431.779,83.295 C434.781,86.001 434.88,86.051 436.651,85.755 C437.635,85.608 438.669,85.706 439.013,86.001 C439.358,86.247 440.785,86.641 442.212,86.838 L444.771,87.182 L446.985,84.771 C448.216,83.492 449.348,81.818 449.495,81.08 C449.692,80.194 450.529,79.309 451.808,78.521 C454.712,76.799 460.371,70.106 461.109,67.498 C461.404,66.317 462.093,65.185 462.536,64.939 C463.127,64.644 463.52,63.61 463.717,61.79 C463.963,60.166 464.554,58.345 465.341,57.213 C466.079,56.179 466.768,54.113 467.113,52.243 C467.605,49.142 467.605,49.142 465.587,45.107 C464.505,42.892 463.422,40.038 463.274,38.808 C462.93,36.544 462.29,35.216 459.042,30.442 C457.221,27.686 454.662,25.127 452.743,24.094 C451.71,23.553 448.363,22.568 444.082,21.535 C442.999,21.289 440.145,21.043 437.685,20.944 C435.273,20.846 432.517,20.6 431.632,20.403 C430.155,20.059 430.057,20.108 430.155,21.19 C430.303,22.224 430.155,22.322 428.236,22.175 C427.104,22.125 425.579,22.371 424.693,22.814 C423.905,23.257 422.724,23.602 422.085,23.602 C421.445,23.651 420.067,23.995 418.984,24.389 C413.719,26.456 409.044,27.982 408.109,28.031 C407.518,28.031 406.928,28.375 406.731,28.769 C406.583,29.163 406.14,29.507 405.747,29.507 C405.353,29.507 403.532,30.294 401.761,31.279 C399.349,32.509 397.774,33.05 396.052,33.05 C394.034,33.099 393.296,33.395 391.721,34.773 C390.59,35.708 389.261,36.397 388.523,36.397 C386.8,36.397 386.85,35.166 388.621,34.231 C390.294,33.346 391.968,31.574 391.475,31.131 C391.279,30.934 390.737,31.033 390.294,31.377 C389.212,32.164 384.881,34.231 383.356,34.674 C382.224,35.019 382.224,34.97 382.519,33.247 C382.913,31.082 382.175,30.885 381.092,32.952 C380.255,34.576 379.517,34.822 379.074,33.69 C378.877,33.198 378.435,33.05 377.893,33.198 C377.155,33.444 376.909,33.05 376.466,31.131 C376.023,29.015 373.366,22.421 372.332,20.748 C371.84,20.059 371.004,19.96 371.004,20.649 z" fill="#D61616"/>
    <path d="M330.405,22.125 C330.257,22.372 329.666,22.618 329.125,22.618 C328.584,22.618 327.649,22.962 327.058,23.356 C326.172,23.897 325.533,23.946 324.253,23.602 C321.645,22.864 321.547,23.749 324.007,25.275 C327.206,27.293 327.009,27.785 323.072,27.539 C321.251,27.44 321.202,27.489 321.497,28.671 C321.694,29.507 321.497,30.147 320.759,30.787 C319.873,31.574 319.775,32.066 320.021,34.084 C320.218,35.363 320.119,37.332 319.824,38.414 C319.086,41.022 319.529,42.696 321.054,43.385 C321.842,43.729 322.285,44.32 322.285,45.107 C322.285,46.091 322.383,46.19 323.22,45.648 C323.909,45.255 324.745,45.205 326.074,45.55 C327.895,45.993 327.944,46.042 327.796,48.109 C327.649,49.88 327.747,50.176 328.633,50.176 C329.912,50.176 331.094,48.453 331.487,46.091 C331.832,43.926 332.373,43.434 333.456,44.32 C334.095,44.861 334.341,44.812 335.129,43.828 C335.67,43.188 336.359,42.794 336.802,42.942 C337.245,43.139 337.934,42.646 338.623,41.761 C339.263,40.924 340.198,39.792 340.788,39.202 C341.625,38.267 341.723,37.725 341.526,35.166 C341.329,33.542 341.428,31.623 341.674,30.934 C342.018,29.95 341.969,29.31 341.329,28.326 C340.887,27.637 340.493,26.751 340.493,26.308 C340.493,25.915 340.148,25.57 339.755,25.57 C339.312,25.57 339.016,25.275 339.066,24.93 C339.263,23.257 338.918,23.159 337.737,24.537 C336.408,26.112 335.572,26.505 335.572,25.521 C335.572,25.177 334.834,24.192 333.997,23.307 C332.373,21.633 330.995,21.19 330.405,22.125 z" fill="#D61616"/>
    <path d="M168.55,28.769 C168.156,29.212 167.615,29.507 167.418,29.507 C167.221,29.507 166.975,30.048 166.876,30.737 C166.778,31.476 166.384,32.164 165.991,32.312 C165.597,32.46 165.302,33.1 165.302,33.739 C165.302,35.166 164.859,35.216 160.873,33.887 L157.822,32.903 L156.837,33.887 C156.345,34.477 155.706,34.92 155.459,34.92 C155.164,34.92 154.967,35.216 154.967,35.609 C154.967,36.003 154.377,36.741 153.639,37.282 C152.556,38.07 152.408,38.365 152.9,39.005 C153.343,39.546 153.393,40.087 152.999,41.022 C152.359,42.696 152.359,42.794 153.097,42.794 C153.393,42.794 154.032,43.139 154.475,43.532 C155.066,44.074 155.656,44.123 156.739,43.828 C158.412,43.385 160.528,43.532 164.268,44.369 C166.286,44.861 167.024,45.255 167.369,46.19 C167.762,47.371 167.762,47.371 165.154,47.075 C163.678,46.928 162.201,47.026 161.808,47.272 C161.414,47.518 161.266,47.715 161.463,47.715 C161.66,47.715 161.414,48.453 160.873,49.29 C160.331,50.176 159.888,51.258 159.888,51.652 C159.938,53.03 161.266,54.162 162.94,54.309 C165.597,54.556 166.876,55.097 166.63,55.983 C166.483,56.868 166.335,56.868 164.268,56.376 C163.136,56.13 162.94,56.278 162.693,57.459 C162.3,59.28 160.331,60.166 158.855,59.132 C157.822,58.394 157.772,58.443 158.117,59.673 C158.363,60.805 158.264,61.002 157.428,61.002 C156.05,61.002 156.198,61.543 158.068,63.364 C159.446,64.742 160.036,64.939 162.251,64.939 C163.678,64.939 164.81,65.087 164.81,65.284 C164.711,66.661 161.266,69.368 159.593,69.368 C159.15,69.368 158.264,69.909 157.625,70.647 C156.985,71.336 155.804,72.124 155.017,72.37 C152.654,73.206 152.408,75.273 154.672,75.273 C155.312,75.273 156.641,75.618 157.674,76.061 C158.757,76.504 160.577,76.75 162.3,76.651 C164.317,76.602 165.449,76.799 166.532,77.488 C167.369,77.98 168.057,78.472 168.156,78.521 C168.254,78.57 167.615,79.752 166.729,81.179 C165.745,82.753 165.006,83.541 164.711,83.246 C164.219,82.753 160.036,84.082 159.495,84.968 C159.298,85.214 158.068,85.952 156.788,86.543 C154.967,87.428 154.524,87.871 154.721,88.56 C154.967,89.298 154.328,89.692 150.932,90.775 C146.651,92.202 144.584,93.383 147.487,92.743 C148.471,92.546 149.062,92.596 149.062,92.94 C149.062,93.629 153.983,93.629 155.755,92.989 C156.444,92.694 159.003,92.35 161.414,92.153 C164.317,91.956 166.138,91.611 166.778,91.07 C167.319,90.627 168.304,89.84 168.992,89.298 C169.681,88.757 170.223,87.871 170.223,87.33 C170.223,86.739 171.305,85.214 172.634,83.934 C175.045,81.572 175.095,81.523 176.965,82.064 C180.114,82.901 184.445,84.919 185.675,86.051 C186.266,86.592 187.004,87.084 187.299,87.084 C187.545,87.084 188.185,87.527 188.677,88.068 C189.366,88.856 189.415,89.2 188.972,89.741 C188.48,90.332 188.775,90.48 191.088,90.775 C194.976,91.267 198.027,90.676 202.21,88.659 C205.753,86.936 206.393,86.149 205.507,84.82 C205.31,84.476 205.753,83.984 206.639,83.639 C207.475,83.295 208.115,82.803 208.115,82.557 C208.115,82.261 207.722,82.212 207.279,82.409 C206.048,82.901 200.537,83.59 200.241,83.246 C200.094,83.147 200.291,82.901 200.684,82.753 C201.029,82.655 200.192,82.114 198.765,81.622 C197.338,81.129 195.862,80.44 195.419,80.096 C194.779,79.555 194.877,79.407 196.108,79.161 C198.618,78.57 200.143,78.718 200.93,79.505 C202.062,80.637 205.605,80.933 205.95,79.948 C206.147,79.505 206.59,79.259 207.033,79.456 C207.426,79.604 208.115,79.407 208.558,79.013 C209.001,78.62 209.788,78.226 210.33,78.128 C211.019,78.029 211.265,77.635 211.166,76.848 C211.019,75.716 214.513,65.037 216.137,61.74 C216.629,60.658 217.613,59.181 218.302,58.492 L219.532,57.164 L218.499,55.048 C217.908,53.916 217.465,52.735 217.465,52.489 C217.465,52.292 217.072,51.701 216.629,51.258 C216.038,50.668 215.743,50.619 215.595,51.062 C215.497,51.406 214.611,51.652 213.528,51.652 C212.544,51.652 210.428,52.193 208.853,52.882 C206.885,53.768 205.31,54.113 203.637,54.063 C202.308,53.965 201.226,53.817 201.226,53.62 C201.226,53.03 205.064,51.16 206.196,51.16 C206.836,51.16 208.41,50.619 209.69,49.93 C210.92,49.29 212.692,48.699 213.627,48.601 C215.645,48.503 216.481,47.912 216.481,46.534 C216.481,45.353 214.857,43.286 213.922,43.286 C213.578,43.286 213.578,43.089 213.971,42.646 C214.267,42.253 214.365,41.81 214.168,41.662 C213.774,41.219 210.133,41.81 208.607,42.548 C207.918,42.843 205.605,43.385 203.391,43.729 C199.553,44.32 199.405,44.32 197.289,43.139 C195.124,41.957 194.681,41.416 194.139,39.792 C193.992,39.3 192.909,38.71 191.334,38.365 C188.825,37.725 188.726,37.775 187.643,39.054 C187.004,39.743 186.266,40.334 185.97,40.334 C185.331,40.334 185.331,41.662 186.019,42.056 C186.315,42.253 186.413,42.745 186.266,43.139 C186.069,43.581 186.708,44.91 187.742,46.288 C189.021,48.06 189.956,48.798 191.285,49.142 C192.269,49.388 193.893,49.831 194.828,50.077 L196.551,50.52 L194.927,51.504 C193.992,52.046 192.417,52.636 191.433,52.833 C189.661,53.079 189.513,53.276 189.218,55.097 C189.021,56.327 189.12,57.41 189.513,58 C189.956,58.738 189.956,59.575 189.563,61.593 C188.332,67.301 187.84,68.876 187.201,68.876 C186.216,68.876 185.675,72.124 186.512,73.108 C187.053,73.797 187.004,74.043 186.167,74.732 C184.346,76.208 185.035,78.718 187.25,78.718 C187.89,78.718 188.431,78.915 188.431,79.21 C188.431,79.456 189.317,79.702 190.399,79.702 C191.777,79.702 192.368,79.899 192.368,80.391 C192.368,81.228 191.137,81.72 190.055,81.326 C189.464,81.08 189.366,81.179 189.661,81.671 C190.055,82.311 190.055,82.311 187.496,81.277 C187.004,81.08 186.856,81.228 187.102,81.769 C187.545,82.95 186.954,83.196 185.429,82.36 C183.51,81.375 178.589,77.685 178.589,77.193 C178.589,76.996 179.524,76.11 180.606,75.224 C182.722,73.551 184.199,70.943 183.707,69.712 C183.411,68.876 181.246,68.285 177.85,68.138 C175.045,68.039 173.668,67.547 173.668,66.661 C173.668,65.431 174.898,64.939 176.473,65.53 C178.638,66.366 180.36,65.677 183.116,62.872 C185.38,60.559 185.527,60.264 185.232,58.591 C184.838,56.376 184.543,55.983 183.903,56.376 C183.608,56.573 182.772,56.77 182.083,56.819 C181.394,56.868 180.409,56.967 179.917,56.967 C179.425,57.016 178.835,57.656 178.539,58.345 L178.047,59.673 L176.965,58.64 C176.374,58.099 175.242,57.557 174.406,57.459 C171.748,57.164 172.388,55.933 175.734,54.802 C178.343,53.965 178.835,53.62 178.933,52.587 C178.982,51.947 179.081,51.062 179.13,50.668 C179.474,48.306 179.179,48.06 176.768,48.404 C173.668,48.847 172.634,49.192 172.88,49.634 C173.126,50.028 172.339,51.504 172.044,51.16 C171.896,51.012 171.945,49.93 172.142,48.699 C172.388,46.829 172.634,46.436 173.668,46.337 C175.144,46.091 176.62,44.91 176.62,43.828 C176.62,43.385 177.063,42.056 177.654,40.875 C178.687,38.562 178.343,37.775 176.571,38.217 C176.079,38.365 175.095,38.316 174.406,38.168 C173.028,37.824 172.831,36.347 173.717,32.509 C174.356,29.606 173.421,28.031 170.961,28.031 C170.075,28.031 168.992,28.375 168.55,28.769 z M198.027,61.002 C198.224,61.297 198.568,61.396 198.814,61.199 C199.503,60.805 198.864,65.087 197.978,67.35 C197.486,68.531 197.387,69.466 197.732,70.647 C197.978,71.533 198.027,72.37 197.879,72.518 C197.732,72.665 197.978,72.813 198.371,72.813 C198.814,72.813 199.454,72.321 199.848,71.73 C200.34,71.041 200.832,70.795 201.423,70.992 C201.865,71.189 202.161,71.533 202.013,71.779 C201.865,72.025 202.062,72.468 202.456,72.813 C203.046,73.305 203.342,73.305 203.932,72.813 C204.523,72.321 204.67,72.37 204.67,73.157 C204.67,74.683 202.505,75.421 200.734,74.535 C199.946,74.141 198.962,73.797 198.519,73.797 C198.076,73.797 197.633,73.453 197.486,73.059 C197.289,72.616 196.551,72.321 195.763,72.321 C194.139,72.321 193.992,71.779 195.025,69.319 C195.37,68.384 195.96,66.022 196.305,64.053 C196.944,60.658 197.338,59.92 198.027,61.002 z M207.672,65.579 C207.131,66.711 206.59,68.433 206.393,69.417 C206.245,70.451 205.802,71.484 205.409,71.829 C204.474,72.616 204.474,72.567 205.655,68.876 C206.196,67.203 206.639,65.628 206.639,65.431 C206.639,65.234 207.033,64.201 207.475,63.167 C208.214,61.494 208.361,61.396 208.509,62.38 C208.607,62.971 208.214,64.398 207.672,65.579 z M203.194,66.169 C203.194,67.006 201.964,68.777 201.472,68.581 C200.537,68.187 201.176,65.923 202.259,65.923 C202.8,65.923 203.194,66.022 203.194,66.169 z M168.697,71.533 C169.042,71.927 169.829,72.37 170.469,72.518 C171.65,72.813 172.093,73.748 171.355,74.486 C171.109,74.683 170.961,75.076 170.961,75.323 C170.961,76.011 170.37,75.962 168.008,75.027 C165.794,74.191 165.154,73.059 166.532,72.518 C166.926,72.321 167.27,71.927 167.27,71.533 C167.27,70.647 167.959,70.647 168.697,71.533 z" fill="#D61616"/>
    <path d="M94.192,38.759 C93.404,38.857 92.42,39.152 92.125,39.448 C91.19,40.235 91.387,41.711 92.469,42.302 C93.503,42.843 93.798,44.467 92.961,45.009 C91.731,45.796 93.65,48.699 95.373,48.699 C97.046,48.699 99.9,47.617 101.18,46.534 C102.459,45.451 102.459,45.402 101.672,43.778 C101.18,42.892 100.835,41.908 100.835,41.613 C100.786,41.318 100.392,40.58 99.851,39.94 C98.867,38.759 97.095,38.414 94.192,38.759 z" fill="#D61616"/>
    <path d="M85.531,43.139 C84.792,43.237 84.104,43.729 83.907,44.172 C83.759,44.615 83.218,46.239 82.627,47.715 C81.397,51.012 81.397,51.012 82.627,51.406 C83.267,51.603 83.611,52.144 83.611,52.981 C83.611,53.965 83.759,54.113 84.3,53.67 C84.792,53.227 85.088,53.276 85.58,53.867 C86.269,54.703 87.844,54.851 88.286,54.113 C88.483,53.817 88.779,53.719 88.975,53.867 C89.221,53.965 90.206,53.67 91.239,53.178 C93.65,51.997 93.995,50.077 92.174,48.158 C91.485,47.469 90.993,46.682 91.091,46.436 C91.141,46.19 90.796,45.255 90.353,44.369 C89.468,42.745 88.926,42.597 85.531,43.139 z" fill="#D61616"/>
    <path d="M22.393,44.566 C22.245,45.009 22.098,46.19 22.098,47.272 C22.098,49.438 21.458,49.684 19.932,48.256 C19.342,47.764 18.062,46.879 17.078,46.288 C15.356,45.353 15.159,45.353 12.994,46.042 C11.763,46.485 10.779,47.026 10.779,47.272 C10.779,47.518 10.189,47.961 9.5,48.207 C8.269,48.699 8.269,49.684 9.549,49.684 C10.139,49.684 10.139,49.93 9.5,51.406 C8.614,53.571 8.614,54.162 9.549,53.817 C9.943,53.62 10.287,53.768 10.287,54.113 C10.287,54.457 10.631,54.605 11.025,54.408 C11.566,54.211 11.763,54.408 11.665,54.949 C11.566,55.491 12.009,55.933 12.994,56.229 C13.83,56.475 14.864,56.868 15.307,57.114 C15.799,57.361 16.291,57.361 16.438,57.065 C16.832,56.475 17.669,56.426 18.604,57.016 C19.686,57.705 18.407,60.904 16.881,61.297 C16.192,61.494 15.553,62.085 15.405,62.774 C15.257,63.413 14.864,63.955 14.519,63.955 C13.633,63.955 13.978,67.793 14.962,68.876 C15.454,69.417 15.995,69.663 16.143,69.417 C16.291,69.171 17.275,68.777 18.308,68.482 C20.621,67.842 21.113,68.581 19.932,70.894 C18.997,72.714 19.342,76.7 20.523,77.586 C21.704,78.521 23.131,78.423 22.737,77.389 C22.541,76.848 22.59,76.7 22.983,76.946 C23.377,77.193 23.574,76.946 23.574,76.307 C23.574,75.716 23.623,75.273 23.722,75.273 C23.771,75.273 24.558,75.47 25.444,75.716 C26.625,76.061 27.166,76.011 27.757,75.47 C28.151,75.027 28.692,74.83 28.987,75.027 C29.233,75.175 30.316,74.781 31.399,74.092 L33.318,72.862 L33.613,73.945 C33.761,74.535 33.662,75.076 33.416,75.175 C33.17,75.273 33.219,75.864 33.515,76.553 C33.957,77.537 33.957,77.882 33.416,78.226 C32.383,78.866 33.662,80.145 35.04,79.85 C35.877,79.653 35.975,79.702 35.581,80.145 C34.696,81.08 31.94,81.228 31.103,80.391 C30.414,79.752 30.267,79.752 29.529,80.391 C28.84,81.031 28.593,81.031 27.954,80.49 C27.166,79.702 21.113,79.013 21.113,79.702 C21.113,80.44 18.358,79.259 17.127,77.931 C15.897,76.651 15.602,75.273 16.438,74.683 C16.684,74.486 15.553,73.01 13.879,71.336 C12.206,69.712 10.73,68.581 10.582,68.827 C10.435,69.073 9.844,69.171 9.303,69.024 C8.614,68.827 8.319,69.024 8.319,69.614 C8.319,70.057 7.876,70.549 7.384,70.697 C6.842,70.844 6.301,71.238 6.153,71.632 C6.006,72.025 5.514,72.321 5.071,72.321 C4.529,72.321 4.332,72.616 4.529,73.305 C4.677,73.846 4.628,74.289 4.431,74.289 C4.185,74.289 3.594,75.224 3.102,76.356 C2.61,77.537 1.626,78.964 0.986,79.604 C0.051,80.44 -0.097,80.834 0.346,81.277 C1.085,82.015 1.085,83.492 0.346,83.738 C0.002,83.885 -0.097,84.328 0.1,84.82 C0.297,85.263 0.691,85.509 0.986,85.362 C1.281,85.165 1.429,85.362 1.331,85.903 C1.183,86.936 1.331,86.986 3.988,86.395 C5.12,86.149 6.645,85.214 7.826,84.082 C9.893,82.064 10.287,81.917 11.665,82.606 C12.108,82.852 13.929,83.442 15.7,83.934 C19.982,85.116 22.541,86.493 23.229,87.921 C23.525,88.61 24.017,89.003 24.46,88.806 C24.853,88.659 25.247,88.954 25.395,89.545 C25.592,90.283 25.936,90.48 26.576,90.283 C27.216,90.086 27.511,90.233 27.511,90.726 C27.511,91.316 28.052,91.513 29.627,91.513 C31.792,91.513 35.434,89.889 37.993,87.773 C38.78,87.133 39.961,86.444 40.601,86.297 C41.536,86.051 41.684,85.854 41.29,85.362 C40.896,84.919 40.896,84.623 41.29,84.377 C42.028,83.885 41.88,83.246 40.699,82.064 C40.01,81.375 39.814,80.933 40.207,80.785 C40.552,80.687 40.798,80.244 40.798,79.85 C40.798,79.309 40.503,79.21 39.814,79.407 C39.272,79.555 38.386,79.85 37.845,79.998 C37.205,80.194 36.861,80.096 36.861,79.604 C36.861,78.866 40.355,77.882 42.077,78.128 C42.668,78.226 43.258,78.718 43.406,79.259 C43.554,79.85 43.947,80.096 44.439,79.899 C44.882,79.752 45.227,79.85 45.227,80.145 C45.227,80.391 45.817,80.588 46.605,80.539 C47.343,80.49 48.573,80.637 49.311,80.834 C50.591,81.179 50.689,81.129 50.394,80.194 C50.148,79.358 50.246,79.161 50.985,79.309 C51.723,79.407 51.87,79.063 52.018,77.242 C52.067,76.011 52.166,74.584 52.215,74.043 C52.215,73.502 52.116,72.665 51.87,72.173 C51.624,71.582 51.723,71.336 52.264,71.336 C52.658,71.336 53.101,71.041 53.248,70.697 C53.396,70.254 53.593,70.254 54.183,70.697 C54.823,71.238 55.02,70.943 55.561,68.679 C56.152,66.169 56.102,65.923 55.118,64.545 C53.74,62.577 52.756,62.331 49.311,62.921 C44.587,63.807 41.979,63.61 41.093,62.38 C40.158,61.101 40.06,60.067 40.896,60.904 C41.733,61.74 42.914,61.642 42.569,60.756 C42.422,60.313 42.569,60.018 43.062,60.018 C43.455,60.018 43.997,59.477 44.292,58.837 L44.833,57.656 L46.211,59.231 C47.491,60.658 50.345,61.642 50,60.559 C49.951,60.313 50.099,60.116 50.345,60.116 C50.591,60.116 50.935,59.821 51.181,59.427 C51.477,58.935 51.723,58.935 52.215,59.427 C53.15,60.362 53.593,60.116 53.593,58.64 C53.593,57.902 53.888,56.327 54.282,55.146 C55.02,52.489 54.577,50.077 52.855,47.912 L51.723,46.485 L48.081,48.306 C44.636,50.028 44.341,50.077 41.142,49.733 C39.321,49.536 37.599,49.142 37.255,48.798 C35.975,47.518 33.072,48.256 32.383,50.028 C32.038,50.914 31.743,51.062 31.103,50.717 C30.611,50.471 29.43,49.93 28.446,49.536 C27.166,48.995 26.527,48.355 26.33,47.371 C25.936,45.845 24.214,43.778 23.279,43.778 C22.983,43.778 22.541,44.123 22.393,44.566 z M29.036,52.735 C29.529,53.374 29.922,54.113 29.971,54.408 C29.971,54.703 30.906,55.441 32.087,56.032 C34.105,57.065 34.253,57.065 37.304,56.327 C38.977,55.884 40.503,55.589 40.601,55.737 C40.699,55.835 39.666,56.967 38.288,58.296 C36.369,60.067 35.926,60.756 36.369,61.199 C36.812,61.593 37.058,61.593 37.205,61.101 C37.353,60.805 37.993,60.51 38.633,60.51 C39.568,60.51 39.814,60.756 39.814,61.839 C39.814,62.872 39.666,63.02 39.223,62.577 C38.337,61.691 37.845,61.839 37.845,62.971 C37.845,63.512 37.55,63.955 37.156,63.955 C35.877,63.955 34.942,66.12 35.385,68.039 C35.631,69.319 35.581,70.057 35.089,70.697 C34.45,71.533 34.351,71.484 33.269,70.205 C32.481,69.27 31.694,68.876 30.611,68.876 C29.725,68.876 28.938,69.024 28.84,69.22 C28.692,69.466 27.609,69.614 26.477,69.614 C24.903,69.614 24.312,69.417 24.165,68.827 C24.066,68.138 24.411,68.089 26.428,68.285 C29.135,68.531 31.595,67.646 30.414,66.809 C29.971,66.514 30.267,66.465 31.349,66.661 L33.022,67.006 L32.826,64.25 C32.727,62.183 32.826,61.543 33.318,61.74 C34.351,62.134 33.957,60.707 32.629,59.526 C31.792,58.689 30.71,58.296 29.233,58.197 C27.314,58.049 27.068,58.148 26.92,59.132 C26.822,59.969 26.379,60.313 25.444,60.412 C24.214,60.559 24.066,60.412 24.066,59.083 C24.066,58.296 23.918,57.311 23.771,56.868 C23.574,56.376 24.017,55.884 25.149,55.294 C26.035,54.802 26.92,54.457 27.166,54.506 C27.363,54.555 27.511,53.916 27.511,53.128 C27.511,51.357 27.806,51.308 29.036,52.735 z M45.719,55.343 C45.719,55.737 45.62,56.081 45.522,56.081 C45.424,56.081 45.227,55.737 45.03,55.343 C44.882,54.949 44.981,54.605 45.227,54.605 C45.522,54.605 45.719,54.949 45.719,55.343 z M20.867,60.018 C21.015,60.264 20.818,60.51 20.424,60.51 C19.982,60.51 19.637,60.264 19.637,60.018 C19.637,59.723 19.834,59.526 20.08,59.526 C20.375,59.526 20.72,59.723 20.867,60.018 z M45.128,70.451 C44.981,71.681 43.75,71.73 41.339,70.697 C40.109,70.205 40.158,70.155 42.274,69.86 C43.504,69.663 44.685,69.466 44.882,69.466 C45.128,69.417 45.227,69.86 45.128,70.451 z" fill="#D61616"/>
    <path d="M133.167,44.615 C132.97,44.762 132.822,45.55 132.822,46.337 C132.822,47.125 132.527,47.863 132.084,48.01 C131.691,48.207 131.346,48.699 131.346,49.142 C131.346,49.585 130.903,50.815 130.411,51.8 C129.279,54.063 128.541,62.971 129.328,65.037 C130.017,66.809 131.986,67.301 134.003,66.218 C135.775,65.283 138.088,62.183 138.728,59.969 C139.121,58.689 139.023,58.443 137.94,58.049 C137.301,57.803 136.759,57.262 136.759,56.868 C136.759,55.933 138.088,51.701 138.728,50.569 C139.712,48.798 138.875,45.944 137.055,44.664 C136.366,44.172 133.61,44.172 133.167,44.615 z" fill="#D61616"/>
    <path d="M145.765,47.568 C145.42,47.666 145.125,48.453 145.125,49.191 C145.125,50.028 144.633,51.16 143.895,51.947 C143.255,52.636 142.714,53.719 142.763,54.309 C142.763,54.851 142.615,55.737 142.419,56.179 C142.172,56.819 142.271,57.065 142.861,57.065 C143.796,57.065 143.796,56.77 143.107,61.101 C142.714,63.758 142.123,65.185 140.795,67.104 C139.86,68.482 138.777,69.762 138.432,70.008 C138.088,70.205 137.793,71.238 137.842,72.321 C137.842,73.403 138.039,74.141 138.236,74.043 C138.482,73.895 138.974,74.141 139.417,74.535 C140.056,75.224 140.549,74.929 144.141,71.681 C149.554,66.76 149.702,66.465 149.899,61.79 C149.997,59.575 150.44,56.229 150.883,54.359 C151.621,51.16 151.621,50.766 150.834,49.339 C150.342,48.355 149.8,47.863 149.357,48.01 C148.964,48.158 148.521,48.06 148.324,47.764 C148.029,47.223 146.798,47.125 145.765,47.568 z" fill="#D61616"/>
    <path d="M106.396,49.782 C105.953,50.274 105.363,50.668 105.067,50.668 C104.575,50.668 103.197,54.654 102.459,58.148 C102.213,59.329 102.41,59.526 104.083,59.969 C108.217,61.051 114.27,61.396 116.829,60.658 C117.715,60.412 117.715,60.412 116.878,61.691 C116.435,62.429 115.894,64.053 115.746,65.382 C115.549,67.35 115.697,68.039 116.681,69.663 C117.37,70.746 118.305,71.878 118.748,72.271 C119.24,72.714 119.437,73.305 119.24,73.945 C118.994,74.683 119.093,74.88 119.732,74.634 C120.126,74.486 120.618,74.535 120.766,74.781 C120.913,75.027 122.144,75.175 123.472,75.175 C125.687,75.126 125.982,74.978 126.671,73.502 C127.655,71.386 127.606,70.598 126.376,69.466 C125.834,68.925 124.949,67.646 124.407,66.661 C123.177,64.348 123.423,62.478 125.392,59.477 C127.114,56.918 127.704,54.851 127.015,53.965 C126.425,53.227 123.374,53.276 119.535,54.014 C118.059,54.309 115.943,54.457 114.86,54.359 C113.778,54.309 112.597,54.211 112.203,54.162 C111.859,54.113 111.662,53.817 111.809,53.473 C111.908,53.178 111.514,51.997 110.924,50.963 C109.693,48.749 107.774,48.256 106.396,49.782 z" fill="#D61616"/>
    <path d="M61.614,52.046 C60.433,52.587 60.089,53.079 60.089,54.113 C60.138,54.802 59.892,55.835 59.646,56.327 C59.104,57.311 59.35,59.034 60.039,59.034 C60.285,59.034 60.482,59.477 60.482,60.018 C60.482,60.559 60.728,61.002 60.974,61.002 C61.27,61.002 61.466,61.347 61.466,61.74 C61.466,62.725 62.254,62.626 64.665,61.494 C65.748,60.953 67.027,60.559 67.47,60.51 C67.913,60.51 68.454,60.264 68.602,60.018 C68.75,59.723 69.242,59.526 69.685,59.526 C70.324,59.526 70.423,59.919 70.177,61.543 L69.931,63.512 L72.293,61.297 C73.622,60.018 74.999,59.034 75.393,59.034 C76.525,59.034 78.69,56.376 78.69,54.949 C78.69,53.424 77.804,52.882 74.557,52.439 C72.883,52.243 71.456,52.39 69.783,52.981 C67.667,53.719 67.323,53.768 66.535,53.079 C64.714,51.554 63.287,51.258 61.614,52.046 z" fill="#D61616"/>
    <path d="M98.375,65.185 C95.225,67.006 94.881,67.104 93.552,66.612 C92.814,66.317 91.288,66.219 90.156,66.317 C88.483,66.465 88.04,66.711 88.04,67.449 C88.04,67.941 87.745,68.384 87.351,68.384 C86.22,68.384 86.023,70.401 87.105,71.878 C88.434,73.748 91.584,74.683 93.454,73.748 C95.373,72.764 97.587,72.321 97.883,72.813 C98.079,73.108 98.572,73.206 99.014,73.01 C100.196,72.567 100.097,74.191 98.867,75.765 C96.948,78.226 97.883,79.752 100.491,78.472 C103.345,77.143 104.92,75.076 105.264,72.222 C106.052,66.366 102.508,62.774 98.375,65.185 z" fill="#D61616"/>
    <path d="M363.622,65.923 C360.866,66.169 358.209,66.957 352.992,69.024 C347.628,71.189 345.66,71.779 344.479,71.533 C343.495,71.336 342.56,71.484 341.723,72.025 C340.296,72.96 339.459,73.059 339.558,72.173 C339.755,70.647 339.459,70.352 337.639,70.352 C336.605,70.352 335.523,70.106 335.178,69.762 C334.735,69.27 334.391,69.368 333.702,70.057 C332.914,70.894 332.914,70.992 333.997,71.681 C335.473,72.714 335.375,73.403 333.8,73.01 C332.865,72.764 332.57,72.813 332.816,73.256 C333.062,73.6 332.816,73.797 332.176,73.797 C331.094,73.797 330.749,74.978 331.635,75.519 C331.93,75.667 332.127,76.405 332.127,77.094 C332.127,77.98 331.93,78.275 331.389,78.029 C330.946,77.882 330.208,78.128 329.716,78.521 C328.879,79.259 328.879,79.407 329.617,80.145 C330.06,80.637 330.897,81.523 331.487,82.212 C332.078,82.852 332.914,83.688 333.308,84.033 C333.751,84.377 334.095,85.312 334.095,86.149 C334.095,87.379 334.243,87.527 334.981,87.133 C336.162,86.493 338.967,86.739 339.459,87.478 C339.755,87.921 340.198,87.97 341.133,87.625 C341.871,87.33 343.642,87.133 345.02,87.182 C347.579,87.281 348.662,86.986 353.534,84.82 C357.028,83.295 358.947,82.803 363.179,82.212 C365.197,81.917 367.214,81.572 367.657,81.425 C368.888,80.933 370.069,82.557 369.921,84.525 C369.823,85.903 369.38,86.543 368.1,87.428 C367.165,88.068 366.673,88.56 367.018,88.56 C367.362,88.56 367.46,89.052 367.264,89.938 L367.018,91.267 L368.248,89.889 C368.937,89.151 369.724,88.56 370.019,88.56 C370.905,88.56 370.561,89.938 369.281,91.316 C368.592,92.054 368.051,92.842 368.051,93.137 C368.051,93.826 365.64,95.942 364.852,95.942 C364.459,95.942 363.966,96.237 363.77,96.631 C363.228,97.517 360.768,98.747 358.553,99.141 C356.437,99.534 355.797,100.223 357.077,100.715 C357.569,100.912 358.11,101.257 358.307,101.552 C358.553,101.896 360.719,102.093 363.966,102.044 C368.789,102.044 369.577,101.896 372.234,100.617 C375.285,99.141 380.993,94.17 382.027,92.005 C382.371,91.316 382.962,88.314 383.306,85.263 L383.946,79.752 L382.667,77.635 C381.978,76.454 380.747,74.88 379.911,74.092 C379.074,73.256 378.385,72.37 378.385,72.025 C378.385,70.943 375.876,68.974 372.628,67.4 C368.74,65.579 368.199,65.48 363.622,65.923 z" fill="#D61616"/>
    <path d="M60.581,70.746 C60.138,71.484 59.35,72.468 58.907,72.911 C58.415,73.403 58.022,74.338 58.022,75.027 C58.022,76.011 58.268,76.258 59.203,76.258 C59.892,76.258 60.531,76.454 60.728,76.7 C60.876,76.946 62.746,77.734 64.911,78.472 C67.076,79.21 68.947,79.948 69.094,80.194 C69.537,80.933 73.179,81.277 74.261,80.687 C74.852,80.391 75.738,79.161 76.23,77.98 C76.722,76.848 77.362,75.716 77.657,75.569 C77.952,75.372 78.198,74.732 78.198,74.092 C78.198,73.453 78.641,72.567 79.182,72.075 C80.216,71.14 80.511,69.86 79.675,69.86 C79.428,69.86 78.149,70.254 76.869,70.795 C73.818,71.976 68.799,71.878 66.388,70.598 C63.632,69.122 61.614,69.171 60.581,70.746 z" fill="#D61616"/>
    <path d="M274.55,71.927 C274.255,72.271 273.566,73.305 273.025,74.191 C272.09,75.765 272.04,75.765 270.613,75.027 C269.826,74.634 268.842,74.289 268.399,74.289 C267.562,74.289 267.414,75.323 268.202,76.11 C268.546,76.454 267.956,76.602 266.086,76.602 C259.639,76.651 259.541,76.7 257.523,78.472 C255.801,79.998 255.653,80.293 256.244,81.228 C256.588,81.769 256.736,82.655 256.588,83.196 C256.391,83.738 256.49,84.131 256.883,84.131 C257.277,84.131 257.375,84.771 257.08,86.444 C256.342,91.267 256.44,93.58 257.474,94.613 C258.114,95.253 258.557,95.401 258.95,95.007 C259.295,94.662 259.639,94.712 260.033,95.253 C260.328,95.647 261.558,96.139 262.739,96.286 C263.97,96.434 265.446,96.877 265.987,97.271 C266.578,97.615 268.792,98.156 270.908,98.452 C273.074,98.698 275.928,99.091 277.257,99.338 C279.176,99.682 279.816,99.633 280.259,99.091 C280.948,98.255 281.489,98.206 281.341,98.993 C281.243,99.288 282.768,99.977 284.884,100.617 C286.902,101.158 289.313,102.044 290.248,102.487 C291.725,103.225 292.02,103.225 292.906,102.585 C293.496,102.192 294.382,101.847 294.874,101.847 C295.366,101.847 296.252,101.404 296.843,100.814 C298.417,99.387 300.976,98.255 301.911,98.599 C302.404,98.796 303.388,98.403 304.372,97.664 C305.258,96.975 306.242,96.434 306.586,96.434 C306.931,96.434 307.571,96.139 307.964,95.794 C308.407,95.45 309.687,94.859 310.819,94.466 C312,94.121 313.279,93.432 313.722,92.891 C314.214,92.399 315.051,92.005 315.592,92.005 C316.183,92.005 317.019,91.71 317.462,91.365 C318.2,90.775 318.2,90.529 317.462,88.314 C316.921,86.592 316.872,85.854 317.265,85.706 C319.086,85.116 321.301,82.163 319.923,82.163 C319.726,82.163 319.283,81.425 318.938,80.539 L318.299,78.964 L317.56,80.293 C317.167,81.08 316.625,81.671 316.429,81.671 C315.986,81.671 315.248,80.391 315.149,79.456 C315.1,79.161 314.952,78.128 314.706,77.094 C314.362,75.175 313.328,74.83 312.984,76.504 C312.885,76.996 312.541,77.734 312.147,78.128 C311.557,78.669 311.458,78.57 311.458,77.291 C311.458,76.258 311.212,75.765 310.72,75.765 C310.326,75.765 309.982,76.011 309.982,76.258 C309.982,76.602 309.687,76.602 308.998,76.258 C308.456,75.962 308.014,75.273 308.014,74.781 C308.014,73.6 307.226,73.502 306.636,74.634 C306.193,75.323 306.094,75.323 305.602,74.388 C305.258,73.797 304.864,73.305 304.667,73.305 C303.978,73.305 301.911,77.832 301.911,79.505 C301.862,81.129 300.632,82.015 300.632,80.391 C300.632,79.702 300.14,79.604 297.187,79.801 C295.268,79.948 293.595,79.85 293.447,79.653 C293.299,79.407 292.463,79.21 291.577,79.21 C290.642,79.21 288.87,78.767 287.591,78.177 C286.065,77.488 284.737,77.242 283.703,77.439 C281.194,77.931 274.55,74.978 275.337,73.748 C275.633,73.206 277.109,73.748 277.896,74.683 C278.192,75.126 278.487,75.224 278.487,74.929 C278.487,73.699 277.798,72.764 276.469,72.075 C275.387,71.484 274.993,71.435 274.55,71.927 z M279.619,98.255 C279.274,98.353 278.585,98.353 278.142,98.255 C277.65,98.107 277.946,98.009 278.733,98.009 C279.57,98.009 279.914,98.107 279.619,98.255 z" fill="#D61616"/>
  </g>
</svg>
